<?xml version="1.0" encoding="UTF-8" standalone="no"?>
<!-- Created with Inkscape (http://www.inkscape.org/) -->

<svg
   xmlns:dc="http://purl.org/dc/elements/1.1/"
   xmlns:cc="http://creativecommons.org/ns#"
   xmlns:rdf="http://www.w3.org/1999/02/22-rdf-syntax-ns#"
   xmlns:svg="http://www.w3.org/2000/svg"
   xmlns="http://www.w3.org/2000/svg"
   xmlns:sodipodi="http://sodipodi.sourceforge.net/DTD/sodipodi-0.dtd"
   xmlns:inkscape="http://www.inkscape.org/namespaces/inkscape"
   width="210.62357mm"
   height="38.168278mm"
   viewBox="0 0 210.62357 38.168278"
   version="1.1"
   id="svg3817"
   inkscape:version="0.92.5 (2060ec1f9f, 2020-04-08)"
   sodipodi:docname="border.svg">
  <defs
     id="defs3811" />
  <sodipodi:namedview
     id="base"
     pagecolor="#ffffff"
     bordercolor="#666666"
     borderopacity="1.0"
     inkscape:pageopacity="0.0"
     inkscape:pageshadow="2"
     inkscape:zoom="0.35"
     inkscape:cx="546.60022"
     inkscape:cy="-50.728116"
     inkscape:document-units="mm"
     inkscape:current-layer="layer1"
     showgrid="false"
     fit-margin-top="0"
     fit-margin-left="0"
     fit-margin-right="0"
     fit-margin-bottom="0"
     inkscape:window-width="1848"
     inkscape:window-height="1016"
     inkscape:window-x="72"
     inkscape:window-y="27"
     inkscape:window-maximized="1" />
  <metadata
     id="metadata3814">
    <rdf:RDF>
      <cc:Work
         rdf:about="">
        <dc:format>image/svg+xml</dc:format>
        <dc:type
           rdf:resource="http://purl.org/dc/dcmitype/StillImage" />
        <dc:title></dc:title>
      </cc:Work>
    </rdf:RDF>
  </metadata>
  <g
     inkscape:label="Layer 1"
     inkscape:groupmode="layer"
     id="layer1"
     transform="translate(38.787976,-97.243242)">
    <path
       d="m 131.24498,122.79152 c -2.95381,2.0708 -7.07849,2.62854 -10.57134,2.75272 -0.21308,0.007 -0.41875,-0.002 -0.62865,-0.001 4.06117,-2.2105 7.95478,-4.71805 11.62332,-7.4683 1.8295,-1.37125 3.58034,-2.84233 5.29907,-4.35152 -0.85548,3.68124 -4.17971,7.98725 -5.7224,9.06851 z m -55.471836,8.62188 c -2.75061,-0.92251 -5.22958,-2.54423 -7.38258,-4.47498 3.24873,-3.43359 4.88315,-7.55156 1.63654,-11.27125 -0.51259,-0.58702 -1.05446,-1.13312 -1.60973,-1.66017 0.27658,-0.22719 0.56233,-0.44768 0.86184,-0.65688 5.42431,-3.78671 12.53631,-4.48945 18.81328,-2.89348 5.99264,1.524 10.11661,6.41209 14.516456,10.44328 -2.06093,0.99942 -4.196296,1.84891 -6.359526,2.58092 -4.62809,1.56598 -9.65306,2.44193 -14.50481,1.60726 -2.22567,-0.24165 -3.45828,-1.73743 -3.69817,-4.48698 0.88195,-0.76518 1.89583,-1.26189 3.0413,-1.49013 2.93264,-0.82339 6.25087,0.55738 8.01511,2.91853 0.59901,0.80186 1.87607,0.14534 1.38465,-0.78635 -1.61925,-3.06705 -4.2612,-4.50744 -7.64434,-4.92936 -2.76366,-0.34466 -8.03205,1.48131 -8.54392,4.75015 -1.71168,10.92588 19.13678,6.30908 24.11765,4.6034 2.239076,-0.76694 4.383256,-1.74096 6.450886,-2.85715 2.3428,1.78541 5.01721,3.18947 7.83625,4.10316 -11.49738,5.15655 -25.283926,8.40564 -36.930886,4.50003 z m -49.239308,-2.22108 c -2.156179,-0.71191 -4.232275,-1.53 -6.255104,-2.42288 2.639483,-0.99237 5.160433,-2.39572 7.532513,-4.05659 7.404097,4.08728 16.17768,6.4717 24.222072,5.11845 5.088821,-0.85619 10.308517,-6.56061 3.86574,-10.11167 -4.756502,-2.62184 -10.715273,-1.42522 -13.327592,3.52354 -0.491773,0.93169 0.785635,1.58821 1.384652,0.78635 2.280356,-3.05188 6.22935,-3.80436 9.647415,-2.3682 3.431468,1.4418 0.08925,4.76744 -2.289527,5.42678 -1.856671,0.51435 -3.891492,0.37218 -5.78838,0.26458 -5.241925,-0.29704 -10.451041,-2.08386 -15.208602,-4.5279 1.27988,-1.03223 2.510015,-2.12619 3.682649,-3.25579 4.931478,-4.74944 10.031235,-7.74312 16.990128,-7.9569 2.951692,-0.0907 9.530647,1.34902 13.848994,4.19312 -0.62935,0.59478 -1.2386,1.21073 -1.80692,1.86196 -3.059644,3.50555 -1.28588,7.63023 1.40828,10.80982 0.17922,0.21131 0.37148,0.39475 0.55528,0.5969 -9.322861,9.45338 -27.36815,5.77991 -38.461598,2.11843 z M 12.38533,125.54424 c -3.6844098,0.0878 -7.3765828,-0.98107 -10.5713398,-2.75272 -2.26201005,-1.25413 -5.028845,-5.4543 -5.564362,-9.16799 5.310717,4.42595 10.789708,8.48395 16.8701848,11.88155 -0.245181,0.0127 -0.484716,0.0332 -0.734483,0.0392 z M -2.8200968,109.15877 c 3.08115995,-3.76908 9.853787,-1.2707 13.1635498,0.52705 3.783542,2.05493 6.907387,5.43984 10.222794,8.14917 1.5113,1.23507 3.153126,2.40735 4.887383,3.49356 -2.667707,1.77094 -5.506157,3.0808 -8.771467,3.7405 -7.3917518,-3.75179 -13.9957518,-8.61871 -20.3757368,-13.99469 0.152046,-0.70909 0.422627,-1.3642 0.873477,-1.91559 z m 69.4439508,16.01858 c -2.78941,-3.27307 -2.13254,-6.88728 0.28751,-9.69927 1.92546,1.94522 2.73509,4.35469 1.25695,7.21113 -0.46531,0.89888 -0.98284,1.72473 -1.54446,2.48814 z m 45.868516,-7.34236 c 5.96088,-4.56142 15.1257,-15.17685 23.38669,-8.67622 0.61137,0.48119 0.97896,1.09679 1.15959,1.79846 -5.39574,4.71699 -11.02325,8.94327 -17.32422,12.44494 -1.1049,0.61419 -2.24895,1.21815 -3.423,1.80764 -3.24238,-0.6223 -6.14433,-2.03835 -8.83673,-3.88691 1.73602,-1.07315 3.41383,-2.24508 5.03767,-3.48791 z m 40.36024,-19.61127 c -5.35481,2.34068 -9.59767,7.11129 -13.8818,11.01866 -0.87665,-1.94945 -2.65712,-3.21204 -5.12939,-4.11939 -5.1883,-1.90429 -11.14601,1.20439 -15.22166,4.11833 -3.57681,2.55729 -6.6548,5.7344 -10.2489,8.28181 -1.0481,0.74331 -2.13783,1.4224 -3.25402,2.05564 -1.47073,-1.18216 -2.88607,-2.47015 -4.26967,-3.79765 -7.540966,-7.2383 -16.406626,-10.43799 -26.708446,-7.44891 -2.80599,0.81386 -5.37774,2.22603 -7.6454,4.02908 -6.219469,-4.78543 -14.37534,-6.29497 -22.162557,-4.32858 -4.802362,1.21249 -8.606012,4.42771 -12.119327,7.74841 -1.429102,1.35078 -2.84127,2.60808 -4.280604,3.74438 -1.113014,-0.6417 -2.197806,-1.31128 -3.243088,-2.00237 -7.1247,-4.70887 -18.6143178,-18.731085 -28.4942118,-10.98373 -1.022702,0.80186 -1.693333,1.68945 -2.111375,2.6356 -1.485193,-1.28552 -2.962275,-2.59327 -4.4382982,-3.91901 -3.679824,-3.30553 -7.654218,-7.589659 -12.95601,-7.866237 -4.80896,-0.251178 -9.766017,1.344083 -12.611381,5.494157 -2.944178,4.29437 -4.401044,11.09098 -0.480272,15.39135 4.597964,5.0426 11.479741,4.51379 17.450117,2.46485 0.681214,-0.23389 0.415925,-1.1691 -0.2794,-1.06503 -3.553883,0.53199 -7.044866,1.01529 -10.60644,0.30198 -5.306942,-1.06292 -7.212894,-6.54932 -6.419426,-11.32241 0.738892,-4.44641 4.525045,-7.61259 8.585023,-8.911869 5.93471,-1.899003 10.681334,2.184399 14.713232,5.823659 2.17417,1.9625 4.3342282,3.88831 6.5087492,5.76368 -0.139346,1.80869 0.354896,3.75638 1.044575,5.71888 1.845381,5.25039 4.92936495,8.16469 10.144477,10.02524 4.359981,1.55575 8.5792038,1.59138 12.5673558,0.61771 0.772935,0.3743 1.556457,0.73801 2.350559,1.09044 11.2014,4.96887 24.774525,8.60954 36.929128,5.44406 2.680407,-0.69814 6.735944,-2.79858 9.986434,-5.56718 7.88705,7.21395 19.04224,7.55579 29.34723,5.63492 6.866816,-1.28023 13.546666,-3.55777 19.874086,-6.58001 0.63711,0.11677 1.27811,0.20849 1.92123,0.27022 9.97514,0.95921 21.39032,-3.55882 21.86446,-15.16909 0.0201,-0.49071 0.005,-0.95144 -0.0392,-1.38888 0.95532,-0.86501 1.90817,-1.73214 2.86314,-2.59433 4.62951,-4.17865 8.85861,-9.178572 15.52117,-9.462558 7.53604,-0.321381 12.62415,7.317318 11.34956,14.159438 -1.51165,8.11178 -10.98479,7.04321 -16.98025,6.1461 -0.69568,-0.10407 -0.96097,0.83114 -0.2794,1.06503 8.73266,2.9972 19.24897,1.34656 19.80812,-9.6393 0.47519,-9.34402 -10.54382,-16.559385 -18.96816,-12.87709"
       style="fill:#d4aa00;fill-opacity:1;fill-rule:nonzero;stroke:none;stroke-width:0.03527778"
       id="path18"
       inkscape:connector-curvature="0" />
  </g>
</svg>
